<svg width="302" height="56" viewBox="0 0 302 56" fill="none" xmlns="http://www.w3.org/2000/svg">
<rect width="301.746" height="55.6336" rx="8" fill="#1A1D23"/>
<path d="M41.881 16.3123L32 27.8168L41.881 39.3193L44.2174 35.6421L37.559 27.8148L44.2174 19.9875L41.881 16.3123ZM46.2051 39.0446H50.5415L57.4359 16.5242H53.0974L46.2051 39.0446ZM62.119 16.3123L59.7826 19.9895L66.441 27.8168L59.7826 35.644L62.119 39.3212L72 27.8187L62.119 16.3123Z" fill="#FF57B2"/>
<path d="M99.4716 25.0939C99.1478 22.6819 97.2046 21.1904 93.8978 21.1904C90.5483 21.1904 88.3409 22.7416 88.3495 25.2643C88.3409 27.2245 89.5767 28.4944 92.1335 29.0058L94.4006 29.4575C95.5426 29.6876 96.0625 30.1052 96.0796 30.7615C96.0625 31.537 95.2188 32.091 93.9489 32.091C92.6534 32.091 91.7926 31.537 91.571 30.4717L88 30.6592C88.3409 33.1649 90.4716 34.7075 93.9404 34.7075C97.3324 34.7075 99.7614 32.9774 99.7699 30.395C99.7614 28.503 98.5256 27.3694 95.9858 26.8495L93.6165 26.3723C92.3978 26.1081 91.946 25.6905 91.9546 25.0598C91.946 24.2757 92.8324 23.7643 93.9574 23.7643C95.2188 23.7643 95.9688 24.4547 96.1478 25.2984L99.4716 25.0939Z" fill="#F8F8F8"/>
<path d="M102.057 39.3609H105.687V32.3552H105.798C106.301 33.4461 107.4 34.6649 109.514 34.6649C112.497 34.6649 114.824 32.3041 114.824 27.9234C114.824 23.4234 112.395 21.1904 109.523 21.1904C107.332 21.1904 106.284 22.4944 105.798 23.5598H105.636V21.3609H102.057V39.3609ZM105.611 27.9064C105.611 25.5711 106.599 24.0797 108.364 24.0797C110.162 24.0797 111.116 25.6393 111.116 27.9064C111.116 30.1905 110.145 31.7757 108.364 31.7757C106.616 31.7757 105.611 30.2416 105.611 27.9064Z" fill="#F8F8F8"/>
<path d="M120.977 34.699C122.912 34.699 124.165 33.8552 124.804 32.6365H124.906V34.4518H128.35V25.6223C128.35 22.5029 125.708 21.1904 122.793 21.1904C119.656 21.1904 117.594 22.6904 117.091 25.0768L120.449 25.3495C120.696 24.4802 121.472 23.841 122.776 23.841C124.012 23.841 124.719 24.4632 124.719 25.537V25.5882C124.719 26.4319 123.824 26.5427 121.548 26.7643C118.958 27.003 116.631 27.8723 116.631 30.7956C116.631 33.3865 118.48 34.699 120.977 34.699ZM122.017 32.1933C120.901 32.1933 120.1 31.6734 120.1 30.6762C120.1 29.6535 120.943 29.1507 122.222 28.9717C123.014 28.8609 124.31 28.6734 124.744 28.3836V29.7728C124.744 31.145 123.611 32.1933 122.017 32.1933Z" fill="#F8F8F8"/>
<path d="M137.08 34.7075C140.565 34.7075 142.756 32.662 142.926 29.6535H139.5C139.287 31.0512 138.367 31.8353 137.122 31.8353C135.426 31.8353 134.327 30.412 134.327 27.9064C134.327 25.4348 135.435 24.02 137.122 24.02C138.452 24.02 139.304 24.8978 139.5 26.2018H142.926C142.773 23.1762 140.48 21.1904 137.063 21.1904C133.091 21.1904 130.637 23.9433 130.637 27.9575C130.637 31.9376 133.048 34.7075 137.08 34.7075Z" fill="#F8F8F8"/>
<path d="M151.218 34.7075C154.456 34.7075 156.638 33.1308 157.149 30.7018L153.792 30.4802C153.425 31.4774 152.488 31.9973 151.277 31.9973C149.462 31.9973 148.311 30.7956 148.311 28.8439V28.8353H157.226V27.8382C157.226 23.3893 154.533 21.1904 151.073 21.1904C147.22 21.1904 144.723 23.9262 144.723 27.966C144.723 32.1166 147.186 34.7075 151.218 34.7075ZM148.311 26.5853C148.388 25.0939 149.522 23.9007 151.132 23.9007C152.709 23.9007 153.8 25.0257 153.809 26.5853H148.311Z" fill="#F8F8F8"/>
<path d="M166.56 21.361H164.096V18.2246H160.466V21.361H158.676V24.0883H160.466V30.9065C160.449 33.4718 162.196 34.7417 164.829 34.6309C165.767 34.5968 166.432 34.4093 166.798 34.29L166.227 31.5883C166.048 31.6224 165.665 31.7076 165.324 31.7076C164.599 31.7076 164.096 31.4349 164.096 30.4292V24.0883H166.56V21.361Z" fill="#F8F8F8"/>
<path d="M168.924 34.4517H172.554V27.0455C172.554 25.4347 173.73 24.3267 175.333 24.3267C175.836 24.3267 176.526 24.4119 176.867 24.5227V21.3012C176.543 21.2245 176.091 21.1733 175.725 21.1733C174.259 21.1733 173.057 22.0256 172.58 23.6449H172.444V21.3608H168.924V34.4517Z" fill="#F8F8F8"/>
<path d="M182.101 34.699C184.036 34.699 185.288 33.8552 185.928 32.6365H186.03V34.4518H189.473V25.6223C189.473 22.5029 186.831 21.1904 183.916 21.1904C180.78 21.1904 178.717 22.6904 178.215 25.0768L181.572 25.3495C181.82 24.4802 182.595 23.841 183.899 23.841C185.135 23.841 185.842 24.4632 185.842 25.537V25.5882C185.842 26.4319 184.947 26.5427 182.672 26.7643C180.081 27.003 177.754 27.8723 177.754 30.7956C177.754 33.3865 179.604 34.699 182.101 34.699ZM183.141 32.1933C182.024 32.1933 181.223 31.6734 181.223 30.6762C181.223 29.6535 182.067 29.1507 183.345 28.9717C184.138 28.8609 185.433 28.6734 185.868 28.3836V29.7728C185.868 31.145 184.734 32.1933 183.141 32.1933Z" fill="#F8F8F8"/>
<path d="M204.026 21.3608H200.182L197.472 30.7273H197.335L194.617 21.3608H190.781L195.358 34.4517H199.449L204.026 21.3608Z" fill="#F8F8F8"/>
<path d="M211.404 34.7075C214.643 34.7075 216.825 33.1308 217.336 30.7018L213.978 30.4802C213.612 31.4774 212.674 31.9973 211.464 31.9973C209.648 31.9973 208.498 30.7956 208.498 28.8439V28.8353H217.413V27.8382C217.413 23.3893 214.72 21.1904 211.259 21.1904C207.407 21.1904 204.91 23.9262 204.91 27.966C204.91 32.1166 207.373 34.7075 211.404 34.7075ZM208.498 26.5853C208.575 25.0939 209.708 23.9007 211.319 23.9007C212.896 23.9007 213.987 25.0257 213.995 26.5853H208.498Z" fill="#F8F8F8"/>
<path d="M223.414 16.9971H219.783V34.4516H223.414V16.9971Z" fill="#F8F8F8"/>
<path d="M226.322 34.4517H229.953V21.3608H226.322V34.4517ZM228.146 19.6733C229.228 19.6733 230.115 18.8466 230.115 17.8324C230.115 16.8267 229.228 16 228.146 16C227.072 16 226.186 16.8267 226.186 17.8324C226.186 18.8466 227.072 19.6733 228.146 19.6733Z" fill="#F8F8F8"/>
<path d="M236.492 26.8836C236.5 25.1961 237.506 24.2075 238.972 24.2075C240.429 24.2075 241.307 25.162 241.299 26.7643V34.4518H244.929V26.1166C244.929 23.0654 243.14 21.1904 240.412 21.1904C238.469 21.1904 237.063 22.145 236.475 23.6706H236.321V21.3609H232.861V34.4518H236.492V26.8836Z" fill="#F8F8F8"/>
<path d="M253.689 39.6336C257.43 39.6336 260.089 37.9291 260.089 34.5797V21.3609H256.484V23.5598H256.348C255.862 22.4944 254.796 21.1904 252.606 21.1904C249.734 21.1904 247.305 23.4234 247.305 27.8808C247.305 32.2359 249.666 34.2643 252.615 34.2643C254.703 34.2643 255.87 33.216 256.348 32.1336H256.501V34.5285C256.501 36.3268 255.35 37.0257 253.774 37.0257C252.171 37.0257 251.362 36.3268 251.064 35.5342L247.706 35.9859C248.14 38.0484 250.16 39.6336 253.689 39.6336ZM253.765 31.537C251.984 31.537 251.012 30.1223 251.012 27.8637C251.012 25.6393 251.967 24.0797 253.765 24.0797C255.529 24.0797 256.518 25.5711 256.518 27.8637C256.518 30.1734 255.512 31.537 253.765 31.537Z" fill="#F8F8F8"/>
<path d="M267.701 34.673C268.792 34.673 269.738 33.7611 269.746 32.6275C269.738 31.5111 268.792 30.5991 267.701 30.5991C266.576 30.5991 265.647 31.5111 265.656 32.6275C265.647 33.7611 266.576 34.673 267.701 34.673Z" fill="#FF57B2"/>
</svg>
